<svg xmlns="http://www.w3.org/2000/svg" xmlns:xlink="http://www.w3.org/1999/xlink" width="1500" zoomAndPan="magnify" viewBox="0 0 810 809.999993" height="1080" preserveAspectRatio="xMidYMid meet" version="1.0"><defs><clipPath id="d6abfd4a8c"><path d="M 387 468 L 534 468 L 534 552.742188 L 387 552.742188 Z M 387 468 " clip-rule="nonzero"/></clipPath><clipPath id="8d2d32c876"><path d="M 361 257.242188 L 462 257.242188 L 462 351 L 361 351 Z M 361 257.242188 " clip-rule="nonzero"/></clipPath><clipPath id="c26d87223a"><path d="M 243 327 L 383 327 L 383 552.742188 L 243 552.742188 Z M 243 327 " clip-rule="nonzero"/></clipPath></defs><path fill="#FFFFFF" d="M 512.382812 389.023438 C 512.488281 389.691406 512.53125 390.363281 512.507812 391.039062 C 512.484375 391.714844 512.394531 392.382812 512.238281 393.042969 C 512.082031 393.699219 511.863281 394.335938 511.582031 394.953125 C 511.304688 395.566406 510.964844 396.148438 510.570312 396.699219 C 510.171875 397.246094 509.726562 397.753906 509.234375 398.214844 C 508.738281 398.675781 508.203125 399.082031 507.628906 399.4375 C 507.050781 399.792969 506.449219 400.089844 505.8125 400.324219 C 505.179688 400.5625 504.53125 400.734375 503.863281 400.84375 C 503.195312 400.949219 502.523438 400.992188 501.847656 400.96875 C 501.171875 400.945312 500.503906 400.855469 499.84375 400.699219 C 499.1875 400.542969 498.550781 400.328125 497.933594 400.046875 C 497.320312 399.765625 496.738281 399.425781 496.1875 399.03125 C 495.640625 398.636719 495.136719 398.191406 494.675781 397.695312 C 494.214844 397.199219 493.804688 396.664062 493.449219 396.089844 C 493.09375 395.515625 492.796875 394.910156 492.5625 394.277344 C 492.324219 393.640625 492.152344 392.992188 492.042969 392.324219 C 491.9375 391.65625 491.894531 390.984375 491.917969 390.308594 C 491.941406 389.632812 492.03125 388.964844 492.1875 388.308594 C 492.34375 387.648438 492.558594 387.011719 492.839844 386.398438 C 493.121094 385.78125 493.460938 385.199219 493.855469 384.652344 C 494.25 384.101562 494.695312 383.597656 495.191406 383.136719 C 495.6875 382.675781 496.222656 382.265625 496.796875 381.910156 C 497.371094 381.554688 497.976562 381.261719 498.609375 381.023438 C 499.246094 380.785156 499.894531 380.613281 500.5625 380.507812 C 501.230469 380.398438 501.902344 380.355469 502.578125 380.378906 C 503.253906 380.402344 503.921875 380.492188 504.578125 380.648438 C 505.238281 380.804688 505.875 381.023438 506.492188 381.304688 C 507.105469 381.585938 507.6875 381.921875 508.238281 382.320312 C 508.785156 382.714844 509.289062 383.160156 509.75 383.652344 C 510.210938 384.148438 510.621094 384.683594 510.976562 385.257812 C 511.332031 385.835938 511.628906 386.441406 511.863281 387.074219 C 512.101562 387.707031 512.273438 388.359375 512.382812 389.023438 Z M 512.382812 389.023438 " fill-opacity="1" fill-rule="nonzero"/><g clip-path="url(#d6abfd4a8c)"><path fill="#FFFFFF" d="M 532.707031 468.449219 C 531.609375 467.777344 530.179688 468.121094 529.507812 469.21875 C 519.945312 484.828125 505.296875 498.402344 487.144531 508.457031 C 486.460938 508.835938 486.015625 509.53125 485.957031 510.308594 L 483.339844 544.109375 C 483.164062 546.34375 481.269531 548.097656 479.03125 548.097656 L 455.949219 548.097656 C 453.882812 548.097656 452.101562 546.625 451.710938 544.597656 L 445.375 511.726562 C 445.128906 510.460938 443.914062 509.640625 442.652344 509.882812 C 441.386719 510.128906 440.5625 511.347656 440.808594 512.609375 L 443.050781 524.246094 C 432.800781 526.226562 422.226562 527.238281 411.566406 527.238281 C 404.480469 527.238281 397.371094 526.792969 390.4375 525.90625 C 389.167969 525.75 388 526.644531 387.839844 527.921875 C 387.679688 529.199219 388.578125 530.359375 389.851562 530.519531 C 396.984375 531.425781 404.289062 531.882812 411.566406 531.882812 C 422.519531 531.882812 433.390625 530.839844 443.925781 528.804688 L 447.136719 545.472656 C 447.949219 549.6875 451.65625 552.742188 455.949219 552.742188 L 479.03125 552.742188 C 483.691406 552.742188 487.617188 549.109375 487.976562 544.464844 L 490.503906 511.898438 C 508.847656 501.515625 523.6875 487.613281 533.476562 471.632812 C 534.140625 470.546875 533.800781 469.117188 532.707031 468.449219 Z M 532.707031 468.449219 " fill-opacity="1" fill-rule="nonzero"/></g><path fill="#FFFFFF" d="M 559.835938 395.097656 L 539.585938 390.9375 C 532.414062 374.441406 520.042969 359.441406 503.75 347.5 C 503.640625 347.417969 503.527344 347.359375 503.417969 347.300781 L 506.261719 312.289062 C 506.40625 310.453125 505.542969 308.695312 503.996094 307.695312 C 502.445312 306.699219 500.484375 306.632812 498.875 307.523438 C 488.5625 313.234375 479.46875 320.996094 472.1875 330.234375 C 470.132812 329.421875 468.046875 328.636719 465.945312 327.914062 C 464.730469 327.496094 463.40625 328.140625 462.988281 329.347656 C 462.570312 330.566406 463.214844 331.886719 464.421875 332.304688 C 466.058594 332.871094 467.6875 333.476562 469.300781 334.101562 C 468.515625 335.21875 467.746094 336.347656 467.015625 337.503906 L 465.957031 339.164062 C 465.265625 340.25 465.59375 341.683594 466.675781 342.375 C 467.757812 343.066406 469.195312 342.742188 469.886719 341.65625 L 470.941406 339.996094 C 478.445312 328.1875 488.882812 318.363281 501.125 311.589844 C 501.167969 311.566406 501.296875 311.5 501.460938 311.605469 C 501.628906 311.710938 501.613281 311.855469 501.613281 311.910156 L 497.90625 357.582031 C 497.800781 358.863281 498.757812 359.988281 500.039062 360.085938 C 500.105469 360.09375 500.167969 360.09375 500.234375 360.09375 C 501.429688 360.09375 502.453125 359.167969 502.546875 357.953125 L 502.972656 352.734375 C 517.972656 364.199219 529.296875 378.375 535.777344 393.859375 C 536.074219 394.570312 536.699219 395.082031 537.449219 395.242188 L 558.890625 399.648438 C 560.890625 400.0625 562.339844 401.84375 562.339844 403.882812 L 562.339844 436.480469 C 562.339844 444.058594 556.957031 450.691406 549.539062 452.246094 C 549.539062 452.246094 537.808594 454.703125 537.808594 454.703125 L 525.296875 457.328125 C 524.039062 457.59375 523.234375 458.824219 523.496094 460.082031 C 523.726562 461.175781 524.691406 461.929688 525.765625 461.929688 C 525.925781 461.929688 550.492188 456.789062 550.492188 456.789062 C 560.046875 454.785156 566.988281 446.242188 566.988281 436.472656 L 566.988281 403.875 C 567 399.648438 563.988281 395.953125 559.835938 395.097656 Z M 559.835938 395.097656 " fill-opacity="1" fill-rule="nonzero"/><g clip-path="url(#8d2d32c876)"><path fill="#FFFFFF" d="M 364.832031 345.035156 C 363.621094 345.457031 362.984375 346.789062 363.414062 348.003906 C 363.847656 349.214844 365.175781 349.851562 366.386719 349.417969 C 374.554688 346.527344 383.054688 344.480469 391.792969 343.265625 C 391.992188 343.292969 392.191406 343.296875 392.398438 343.273438 C 396.671875 342.667969 401.003906 342.269531 405.367188 342.074219 C 407.160156 342.007812 408.960938 341.96875 410.777344 341.96875 C 426.839844 341.96875 442.292969 344.667969 456.714844 349.984375 C 456.980469 350.085938 457.253906 350.128906 457.519531 350.128906 C 458.460938 350.128906 459.351562 349.546875 459.699219 348.609375 C 460.144531 347.40625 459.523438 346.0625 458.320312 345.625 C 454.652344 344.269531 450.925781 343.085938 447.136719 342.0625 C 455.96875 333.0625 461.425781 320.742188 461.425781 307.171875 C 461.425781 279.675781 439.054688 257.3125 411.566406 257.3125 C 384.078125 257.3125 361.707031 279.683594 361.707031 307.171875 C 361.707031 320.582031 367.039062 332.757812 375.675781 341.730469 C 372.007812 342.667969 368.394531 343.769531 364.832031 345.035156 Z M 414.332031 313.066406 C 414.152344 312.6875 413.847656 312.34375 413.425781 312.023438 C 413 311.703125 412.457031 311.410156 411.773438 311.140625 C 411.09375 310.867188 410.269531 310.566406 409.308594 310.234375 C 408.15625 309.871094 407.035156 309.472656 405.9375 309.039062 C 404.832031 308.601562 403.855469 308.023438 402.992188 307.296875 C 402.136719 306.574219 401.4375 305.664062 400.914062 304.558594 C 400.382812 303.457031 400.121094 302.0625 400.121094 300.371094 C 400.121094 298.683594 400.402344 297.148438 400.960938 295.78125 C 401.515625 294.40625 402.300781 293.230469 403.3125 292.25 C 404.320312 291.273438 405.558594 290.511719 407.019531 289.964844 C 407.09375 289.9375 407.167969 289.917969 407.234375 289.890625 L 407.234375 285.777344 C 407.234375 285.234375 407.679688 284.789062 408.222656 284.789062 L 413.222656 284.789062 C 413.765625 284.789062 414.210938 285.234375 414.210938 285.777344 L 414.210938 289.289062 C 415.195312 289.402344 416.199219 289.585938 417.230469 289.851562 C 418.542969 290.183594 419.828125 290.636719 421.0625 291.195312 C 421.867188 291.558594 422.214844 292.515625 421.816406 293.300781 L 419.820312 297.210938 C 419.394531 298.039062 418.367188 298.3125 417.566406 297.828125 C 417.074219 297.527344 416.585938 297.28125 416.09375 297.089844 C 415.128906 296.710938 414.191406 296.523438 413.289062 296.523438 C 412.136719 296.523438 411.207031 296.796875 410.484375 297.34375 C 409.757812 297.886719 409.398438 298.589844 409.398438 299.46875 C 409.398438 300.074219 409.578125 300.570312 409.945312 300.964844 C 410.304688 301.355469 410.78125 301.695312 411.375 301.980469 C 411.964844 302.265625 412.625 302.519531 413.367188 302.726562 C 414.105469 302.9375 414.835938 303.164062 415.5625 303.402344 C 418.457031 304.367188 420.578125 305.65625 421.921875 307.269531 C 423.261719 308.886719 423.933594 310.992188 423.933594 313.585938 C 423.933594 315.332031 423.640625 316.921875 423.050781 318.335938 C 422.460938 319.753906 421.601562 320.96875 420.472656 321.980469 C 419.34375 322.988281 417.953125 323.773438 416.304688 324.332031 C 415.648438 324.558594 414.949219 324.730469 414.21875 324.871094 L 414.21875 328.542969 C 414.21875 329.089844 413.773438 329.535156 413.226562 329.535156 L 408.230469 329.535156 C 407.683594 329.535156 407.238281 329.089844 407.238281 328.542969 L 407.238281 324.882812 C 404.6875 324.449219 402.261719 323.535156 399.949219 322.125 C 399.246094 321.699219 398.992188 320.800781 399.378906 320.078125 L 401.644531 315.816406 C 402.082031 314.992188 403.152344 314.742188 403.902344 315.292969 C 404.761719 315.925781 405.613281 316.421875 406.460938 316.800781 C 407.757812 317.375 409.039062 317.660156 410.308594 317.660156 C 411.757812 317.660156 412.835938 317.328125 413.546875 316.660156 C 414.257812 315.996094 414.609375 315.246094 414.609375 314.394531 C 414.605469 313.890625 414.515625 313.445312 414.332031 313.066406 Z M 366.351562 307.164062 C 366.351562 282.234375 386.636719 261.960938 411.558594 261.960938 C 436.484375 261.960938 456.765625 282.242188 456.765625 307.164062 C 456.765625 320.476562 450.976562 332.453125 441.785156 340.734375 C 439.199219 340.148438 436.597656 339.644531 433.964844 339.203125 C 433.730469 339.078125 433.480469 338.980469 433.199219 338.9375 C 432.375 338.8125 431.542969 338.6875 430.714844 338.574219 C 441.289062 332.113281 448.351562 320.464844 448.351562 307.164062 C 448.351562 286.84375 431.878906 270.367188 411.554688 270.367188 C 391.230469 270.367188 374.753906 286.84375 374.753906 307.164062 C 374.753906 320.417969 381.757812 332.035156 392.273438 338.507812 C 388.476562 339 384.722656 339.648438 381.015625 340.449219 C 372.023438 332.179688 366.351562 320.324219 366.351562 307.164062 Z M 366.351562 307.164062 " fill-opacity="1" fill-rule="nonzero"/></g><g clip-path="url(#c26d87223a)"><path fill="#FFFFFF" d="M 380.480469 509.882812 C 379.21875 509.640625 378.003906 510.46875 377.757812 511.726562 L 371.421875 544.597656 C 371.03125 546.621094 369.25 548.097656 367.183594 548.097656 L 344.101562 548.097656 C 341.863281 548.097656 339.96875 546.351562 339.792969 544.109375 L 337.175781 510.308594 C 337.117188 509.53125 336.671875 508.835938 335.984375 508.457031 C 301.519531 489.347656 280.949219 458.3125 280.949219 425.429688 C 280.949219 385.195312 311.46875 348.640625 358.703125 332.3125 C 359.917969 331.894531 360.5625 330.570312 360.136719 329.355469 C 359.71875 328.140625 358.398438 327.496094 357.179688 327.921875 C 318.253906 341.378906 290.246094 368.195312 280.285156 399.761719 L 274.257812 396.992188 C 272.183594 396.035156 270.316406 394.722656 268.734375 393.128906 C 272.15625 392.238281 275.40625 390.5625 278.210938 388.144531 C 282.871094 384.125 284.011719 377.34375 280.929688 372.027344 L 280.851562 371.890625 C 278.988281 368.6875 275.832031 366.441406 272.195312 365.742188 C 268.554688 365.042969 264.800781 365.949219 261.882812 368.242188 C 257.300781 371.828125 255.722656 378.0625 258.035156 383.40625 L 260.5 389.09375 C 258.351562 388.828125 256.234375 388.199219 254.226562 387.179688 L 246.722656 383.378906 C 245.578125 382.800781 244.175781 383.261719 243.597656 384.402344 C 243.019531 385.546875 243.476562 386.949219 244.621094 387.527344 L 252.125 391.328125 C 255.660156 393.121094 259.484375 393.96875 263.269531 393.886719 C 265.609375 397.023438 268.714844 399.550781 272.328125 401.21875 L 279.003906 404.289062 C 277.234375 411.167969 276.308594 418.238281 276.308594 425.429688 C 276.308594 459.675781 297.34375 491.925781 332.648438 511.910156 L 335.167969 544.476562 C 335.527344 549.121094 339.457031 552.757812 344.113281 552.757812 L 367.195312 552.757812 C 371.488281 552.757812 375.191406 549.699219 376.007812 545.480469 L 382.34375 512.609375 C 382.570312 511.347656 381.746094 510.125 380.480469 509.882812 Z M 264.78125 387.300781 L 262.289062 381.550781 C 260.8125 378.15625 261.820312 374.183594 264.738281 371.894531 C 266.1875 370.757812 267.957031 370.160156 269.765625 370.160156 C 270.277344 370.160156 270.792969 370.207031 271.304688 370.308594 C 273.625 370.753906 275.632812 372.183594 276.816406 374.222656 L 276.894531 374.363281 C 278.863281 377.75 278.132812 382.0625 275.167969 384.621094 C 272.390625 387.015625 269.078125 388.496094 265.628906 389.023438 C 265.316406 388.464844 265.039062 387.894531 264.78125 387.300781 Z M 264.78125 387.300781 " fill-opacity="1" fill-rule="nonzero"/></g><path fill="#FFFFFF" d="M 298.722656 331.660156 C 298.808594 331.660156 298.894531 331.65625 298.972656 331.648438 L 316.175781 329.769531 C 317.449219 329.628906 318.375 328.476562 318.234375 327.203125 C 318.09375 325.925781 316.945312 325.007812 315.667969 325.140625 L 298.46875 327.023438 C 297.191406 327.164062 296.269531 328.3125 296.410156 329.589844 C 296.546875 330.785156 297.550781 331.660156 298.722656 331.660156 Z M 298.722656 331.660156 " fill-opacity="1" fill-rule="nonzero"/><path fill="#FFFFFF" d="M 333.269531 279.929688 C 333.726562 280.410156 334.339844 280.648438 334.949219 280.648438 C 335.527344 280.648438 336.105469 280.433594 336.558594 280.003906 C 337.488281 279.113281 337.515625 277.644531 336.625 276.714844 L 324.648438 264.21875 C 323.757812 263.289062 322.289062 263.261719 321.359375 264.152344 C 320.425781 265.042969 320.402344 266.511719 321.292969 267.441406 Z M 333.269531 279.929688 " fill-opacity="1" fill-rule="nonzero"/><path fill="#FFFFFF" d="M 510.941406 290.742188 C 511.539062 290.742188 512.136719 290.511719 512.589844 290.058594 L 524.777344 277.777344 C 525.679688 276.867188 525.675781 275.390625 524.761719 274.488281 C 523.851562 273.582031 522.378906 273.589844 521.472656 274.5 L 509.285156 286.78125 C 508.382812 287.691406 508.386719 289.167969 509.296875 290.070312 C 509.757812 290.523438 510.347656 290.742188 510.941406 290.742188 Z M 510.941406 290.742188 " fill-opacity="1" fill-rule="nonzero"/><path fill="#FFFFFF" d="M 524.757812 338.289062 C 524.597656 339.5625 525.496094 340.726562 526.769531 340.886719 L 543.9375 343.066406 C 544.039062 343.078125 544.136719 343.085938 544.238281 343.085938 C 545.394531 343.085938 546.390625 342.230469 546.542969 341.050781 C 546.703125 339.777344 545.804688 338.613281 544.53125 338.453125 L 527.363281 336.273438 C 526.085938 336.109375 524.917969 337.011719 524.757812 338.289062 Z M 524.757812 338.289062 " fill-opacity="1" fill-rule="nonzero"/></svg>